Inverse Dynamics Generalized Forces
version=1
nRows=6
nColumns=34
inDegrees=no
endheader 
time	pelvis_tilt_moment	pelvis_list_moment	pelvis_rotation_moment	pelvis_tx_force	pelvis_ty_force	pelvis_tz_force	hip_flexion_l_moment	hip_adduction_l_moment	hip_rotation_l_moment	hip_flexion_r_moment	hip_adduction_r_moment	hip_rotation_r_moment	knee_angle_l_moment	knee_angle_r_moment	ankle_angle_l_moment	ankle_angle_r_moment	subtalar_angle_l_moment	subtalar_angle_r_moment	mtp_angle_l_moment	mtp_angle_r_moment	lumbar_extension_moment	lumbar_bending_moment	lumbar_rotation_moment	arm_flex_l_moment	arm_add_l_moment	arm_rot_l_moment	arm_flex_r_moment	arm_add_r_moment	arm_rot_r_moment	elbow_flex_l_moment	elbow_flex_r_moment	pro_sup_l_moment	pro_sup_r_moment	
          0.03900000	         -0.00005683	          0.00002902	          0.00000660	         -0.00005214	          0.00004169	         -0.00003014	         29.42564229	        -25.17132377	          0.62866244	        -24.07627196	        -14.63078763	          3.06371565	         -1.71484076	          1.87687037	        -66.66741320	          8.37558282	          5.98178201	         -0.85065683	         17.12454058	         -0.07524943	         -0.94559963	          7.80753465	          6.98501368	         -1.16807238	         -2.65418302	         -0.36163197	          1.33397023	         -1.79295491	         -0.05085275	         -0.14345532	          0.81547996	         -0.02054605	         -0.02176941	
          0.05915094	         -0.00005131	          0.00001561	          0.00000315	         -0.00005249	          0.00002852	         -0.00001621	         -1.13684649	        -28.70907045	          2.88773190	          7.46786751	        -25.50932070	          4.69000767	         11.04868147	        -24.57769855	        -66.42066494	         15.40543104	          3.63117633	         -1.05364465	         19.10596981	         -0.07581919	         -2.47842238	          2.77923094	          6.77115951	         -1.20799578	         -2.69804349	         -0.34513852	          1.00622759	         -1.91504348	         -0.05493384	         -0.12657640	          0.71624753	         -0.01816842	         -0.02223766	
          0.07930189	         -0.00002309	          0.00000849	         -0.00000020	         -0.00002023	          0.00002948	         -0.00000805	        -11.58549853	        -29.80337624	          4.14043538	         19.91315884	        -33.08263204	          6.57981803	         11.55592093	        -38.53713589	        -60.60010189	         17.63870551	          1.15397390	          0.22697009	         18.70986514	         -0.07431730	         -4.43316495	         -1.89214710	          6.87493374	         -1.22261311	         -2.74853528	         -0.33711889	          0.98181438	         -1.98590428	         -0.05396507	         -0.11454837	          0.70093902	         -0.01599676	         -0.02309641	
          0.09945283	         -0.00002006	          0.00000139	          0.00000021	         -0.00001955	          0.00003293	         -0.00000134	         16.72975837	        -19.18654336	          3.30052311	         -7.98529338	        -29.51102201	          6.78763991	         -8.00622589	        -28.79762018	        -44.24976032	         13.78206889	          0.20953801	          2.90019108	         14.79552401	         -0.07000693	         -5.15547976	         -5.92975956	          6.83026822	         -1.13116222	         -2.78426521	         -0.33810199	          0.89538420	         -2.00315544	         -0.05114361	         -0.05027960	          0.66107292	         -0.01494463	         -0.02228223	
          0.11960377	         -0.00000456	         -0.00001217	          0.00000101	         -0.00000571	          0.00001850	          0.00001311	         83.86041884	          4.38631282	         -2.25584659	        -80.27028688	        -14.16647608	          4.58338680	        -43.73060870	          7.58628018	        -15.36989157	          2.12229812	         -0.02749673	          6.14486105	          7.04912407	         -0.06203861	         -2.17319396	         -9.60580803	          6.56884442	         -1.13895955	         -2.79917880	         -0.33994128	          0.54568633	         -1.92822879	         -0.04795115	          0.01401714	          0.54547344	         -0.01426842	         -0.01888795	
          0.13975472	          0.00000878	          0.00002630	         -0.00000879	          0.00000604	          0.00000027	         -0.00002881	         93.85022657	         15.34800762	         -4.85430794	        -97.65214669	        -17.45016898	          4.53209601	        -45.27661972	         15.11020910	          6.93389416	         -5.47073848	         -0.00601553	          7.82450135	         -1.00593821	          0.00174278	          2.31546304	        -10.84287473	          7.54694824	         -1.67944656	         -2.81815636	         -0.33785713	          0.60756642	         -1.83998249	         -0.04504333	         -0.12353042	          0.55200347	         -0.01182374	         -0.01755633	
